<?xml version="1.0" standalone="no"?>
<!DOCTYPE svg PUBLIC "-//W3C//DTD SVG 1.1//EN" "http://www.w3.org/Graphics/SVG/1.1/DTD/svg11.dtd" >
<svg>
<metadata>
Created by FontForge 20090914 at Wed Dec  6 09:55:49 2017
 By www-data
Created by Keshikan
with FontForge 2.0 (http://fontforge.sf.net)
</metadata>
<defs>
<font id="DSEG7ClassicMini-Bold" horiz-adv-x="816" >
  <font-face 
    font-family="DSEG7 Classic Mini"
    font-weight="700"
    font-stretch="normal"
    units-per-em="1000"
    panose-1="2 0 8 3 0 0 0 0 0 0"
    ascent="1000"
    descent="0"
    x-height="469"
    cap-height="469"
    bbox="-61.998 0 717 1000"
    underline-thickness="50"
    underline-position="-100"
    unicode-range="U+0020-U+007A"
  />
<missing-glyph horiz-adv-x="364" 
d="M33 0v666h265v-666h-265zM66 33h199v600h-199v-600z" />
    <glyph glyph-name=".notdef" horiz-adv-x="364" 
d="M33 0v666h265v-666h-265zM66 33h199v600h-199v-600z" />
    <glyph glyph-name="space" unicode=" " horiz-adv-x="200" 
 />
    <glyph glyph-name="exclam" unicode="!" 
 />
    <glyph glyph-name="hyphen" unicode="-" 
d="M581 562l61 -62l-61 -62h-346l-61 62l61 62h346z" />
    <glyph glyph-name="period" unicode="." horiz-adv-x="0" 
d="M62 62c0 -8 -1.66699 -16 -5 -24s-7.66602 -14.667 -12.999 -20s-12 -9.66602 -20 -12.999s-16 -5 -24 -5s-16 1.66699 -24 5s-14.667 7.66602 -20 12.999s-9.66602 12 -12.999 20s-5 16 -5 24s1.66699 16 5 24s7.66602 14.667 12.999 20s12 9.66602 20 12.999s16 5 24 5
s16 -1.66699 24 -5s14.667 -7.66602 20 -12.999s9.66602 -12 12.999 -20s5 -16 5 -24z" />
    <glyph glyph-name="zero" unicode="0" 
d="M130 75l-31 30v364h18l13 -13l93 -92v-197zM130 544l-13 -13h-18v363l31 31l93 -92v-197zM174 969l30 31h408l30 -31l-92 -93h-284zM642 31l-30 -31h-408l-30 31l92 93h284zM686 925l31 -30v-364h-18l-13 13l-93 92v197zM686 456l13 13h18v-364l-31 -30l-93 92v197z" />
    <glyph glyph-name="one" unicode="1" 
d="M686 925l31 -30v-364h-18l-13 13l-93 92v197zM686 456l13 13h18v-364l-31 -30l-93 92v197z" />
    <glyph glyph-name="two" unicode="2" 
d="M130 75l-31 30v364h18l13 -13l93 -92v-197zM581 562l61 -62l-61 -62h-346l-61 62l61 62h346zM174 969l30 31h408l30 -31l-92 -93h-284zM642 31l-30 -31h-408l-30 31l92 93h284zM686 925l31 -30v-364h-18l-13 13l-93 92v197z" />
    <glyph glyph-name="three" unicode="3" 
d="M581 562l61 -62l-61 -62h-346l-61 62l61 62h346zM174 969l30 31h408l30 -31l-92 -93h-284zM642 31l-30 -31h-408l-30 31l92 93h284zM686 925l31 -30v-364h-18l-13 13l-93 92v197zM686 456l13 13h18v-364l-31 -30l-93 92v197z" />
    <glyph glyph-name="four" unicode="4" 
d="M130 544l-13 -13h-18v363l31 31l93 -92v-197zM581 562l61 -62l-61 -62h-346l-61 62l61 62h346zM686 925l31 -30v-364h-18l-13 13l-93 92v197zM686 456l13 13h18v-364l-31 -30l-93 92v197z" />
    <glyph glyph-name="five" unicode="5" 
d="M130 544l-13 -13h-18v363l31 31l93 -92v-197zM581 562l61 -62l-61 -62h-346l-61 62l61 62h346zM174 969l30 31h408l30 -31l-92 -93h-284zM642 31l-30 -31h-408l-30 31l92 93h284zM686 456l13 13h18v-364l-31 -30l-93 92v197z" />
    <glyph glyph-name="six" unicode="6" 
d="M130 75l-31 30v364h18l13 -13l93 -92v-197zM130 544l-13 -13h-18v363l31 31l93 -92v-197zM581 562l61 -62l-61 -62h-346l-61 62l61 62h346zM174 969l30 31h408l30 -31l-92 -93h-284zM642 31l-30 -31h-408l-30 31l92 93h284zM686 456l13 13h18v-364l-31 -30l-93 92v197z
" />
    <glyph glyph-name="seven" unicode="7" 
d="M130 544l-13 -13h-18v363l31 31l93 -92v-197zM174 969l30 31h408l30 -31l-92 -93h-284zM686 925l31 -30v-364h-18l-13 13l-93 92v197zM686 456l13 13h18v-364l-31 -30l-93 92v197z" />
    <glyph glyph-name="eight" unicode="8" 
d="M130 75l-31 30v364h18l13 -13l93 -92v-197zM130 544l-13 -13h-18v363l31 31l93 -92v-197zM581 562l61 -62l-61 -62h-346l-61 62l61 62h346zM174 969l30 31h408l30 -31l-92 -93h-284zM642 31l-30 -31h-408l-30 31l92 93h284zM686 925l31 -30v-364h-18l-13 13l-93 92v197z
M686 456l13 13h18v-364l-31 -30l-93 92v197z" />
    <glyph glyph-name="nine" unicode="9" 
d="M130 544l-13 -13h-18v363l31 31l93 -92v-197zM581 562l61 -62l-61 -62h-346l-61 62l61 62h346zM174 969l30 31h408l30 -31l-92 -93h-284zM642 31l-30 -31h-408l-30 31l92 93h284zM686 925l31 -30v-364h-18l-13 13l-93 92v197zM686 456l13 13h18v-364l-31 -30l-93 92v197z
" />
    <glyph glyph-name="colon" unicode=":" horiz-adv-x="200" 
d="M162 693c0 -8 -1.66992 -16 -5.00293 -24s-7.66602 -14.667 -12.999 -20s-12 -9.66602 -20 -12.999s-16 -5 -24 -5s-16 1.66699 -24 5s-14.667 7.66602 -20 12.999s-9.66602 12 -12.999 20s-5 16 -5 24s1.66699 16 5 24c2.66699 7.33301 7 13.666 13 18.999
c6.66699 6.66699 13.334 11.334 20.001 14.001c6 2.66699 14 4 24 4s18 -1.33301 24 -4c6.66699 -2.66699 13.334 -7.33398 20.001 -14.001c5.33301 -5.33301 9.66602 -11.666 12.999 -18.999c3.33301 -8 5 -16 5 -24zM161.997 281c0 -8 -1.66797 -16 -5.00098 -24
s-7.66602 -14.667 -12.999 -20s-12 -9.66602 -20 -12.999s-16 -5 -24 -5s-16 1.66699 -24 5s-14.667 7.66602 -20 12.999s-9.66602 12 -12.999 20s-5 16 -5 24s1.66699 16 5 24c3.33301 7.33301 7.66602 13.666 12.999 18.999c6.66699 6.66699 13.334 11.334 20.001 14.001
c6 2.66699 14 4 24 4s18 -1.33301 24 -4c7.33301 -2.66699 14 -7.33398 20 -14.001c5.33301 -5.33301 9.66602 -11.666 12.999 -18.999c3.33301 -8 5 -16 5 -24z" />
    <glyph glyph-name="A" unicode="A" 
d="M130 75l-31 30v364h18l13 -13l93 -92v-197zM130 544l-13 -13h-18v363l31 31l93 -92v-197zM581 562l61 -62l-61 -62h-346l-61 62l61 62h346zM174 969l30 31h408l30 -31l-92 -93h-284zM686 925l31 -30v-364h-18l-13 13l-93 92v197zM686 456l13 13h18v-364l-31 -30l-93 92
v197z" />
    <glyph glyph-name="B" unicode="B" 
d="M130 75l-31 30v364h18l13 -13l93 -92v-197zM130 544l-13 -13h-18v363l31 31l93 -92v-197zM581 562l61 -62l-61 -62h-346l-61 62l61 62h346zM642 31l-30 -31h-408l-30 31l92 93h284zM686 456l13 13h18v-364l-31 -30l-93 92v197z" />
    <glyph glyph-name="C" unicode="C" 
d="M130 75l-31 30v364h18l13 -13l93 -92v-197zM581 562l61 -62l-61 -62h-346l-61 62l61 62h346zM642 31l-30 -31h-408l-30 31l92 93h284z" />
    <glyph glyph-name="D" unicode="D" 
d="M130 75l-31 30v364h18l13 -13l93 -92v-197zM581 562l61 -62l-61 -62h-346l-61 62l61 62h346zM642 31l-30 -31h-408l-30 31l92 93h284zM686 925l31 -30v-364h-18l-13 13l-93 92v197zM686 456l13 13h18v-364l-31 -30l-93 92v197z" />
    <glyph glyph-name="E" unicode="E" 
d="M130 75l-31 30v364h18l13 -13l93 -92v-197zM130 544l-13 -13h-18v363l31 31l93 -92v-197zM581 562l61 -62l-61 -62h-346l-61 62l61 62h346zM174 969l30 31h408l30 -31l-92 -93h-284zM642 31l-30 -31h-408l-30 31l92 93h284z" />
    <glyph glyph-name="F" unicode="F" 
d="M130 75l-31 30v364h18l13 -13l93 -92v-197zM130 544l-13 -13h-18v363l31 31l93 -92v-197zM581 562l61 -62l-61 -62h-346l-61 62l61 62h346zM174 969l30 31h408l30 -31l-92 -93h-284z" />
    <glyph glyph-name="G" unicode="G" 
d="M130 75l-31 30v364h18l13 -13l93 -92v-197zM130 544l-13 -13h-18v363l31 31l93 -92v-197zM174 969l30 31h408l30 -31l-92 -93h-284zM642 31l-30 -31h-408l-30 31l92 93h284zM686 456l13 13h18v-364l-31 -30l-93 92v197z" />
    <glyph glyph-name="H" unicode="H" 
d="M130 75l-31 30v364h18l13 -13l93 -92v-197zM130 544l-13 -13h-18v363l31 31l93 -92v-197zM581 562l61 -62l-61 -62h-346l-61 62l61 62h346zM686 456l13 13h18v-364l-31 -30l-93 92v197z" />
    <glyph glyph-name="I" unicode="I" 
d="M686 456l13 13h18v-364l-31 -30l-93 92v197z" />
    <glyph glyph-name="J" unicode="J" 
d="M130 75l-31 30v364h18l13 -13l93 -92v-197zM642 31l-30 -31h-408l-30 31l92 93h284zM686 925l31 -30v-364h-18l-13 13l-93 92v197zM686 456l13 13h18v-364l-31 -30l-93 92v197z" />
    <glyph glyph-name="K" unicode="K" 
d="M130 75l-31 30v364h18l13 -13l93 -92v-197zM130 544l-13 -13h-18v363l31 31l93 -92v-197zM581 562l61 -62l-61 -62h-346l-61 62l61 62h346zM174 969l30 31h408l30 -31l-92 -93h-284zM686 456l13 13h18v-364l-31 -30l-93 92v197z" />
    <glyph glyph-name="L" unicode="L" 
d="M130 75l-31 30v364h18l13 -13l93 -92v-197zM130 544l-13 -13h-18v363l31 31l93 -92v-197zM642 31l-30 -31h-408l-30 31l92 93h284z" />
    <glyph glyph-name="M" unicode="M" 
d="M130 75l-31 30v364h18l13 -13l93 -92v-197zM130 544l-13 -13h-18v363l31 31l93 -92v-197zM174 969l30 31h408l30 -31l-92 -93h-284zM686 925l31 -30v-364h-18l-13 13l-93 92v197zM686 456l13 13h18v-364l-31 -30l-93 92v197z" />
    <glyph glyph-name="N" unicode="N" 
d="M130 75l-31 30v364h18l13 -13l93 -92v-197zM581 562l61 -62l-61 -62h-346l-61 62l61 62h346zM686 456l13 13h18v-364l-31 -30l-93 92v197z" />
    <glyph glyph-name="O" unicode="O" 
d="M130 75l-31 30v364h18l13 -13l93 -92v-197zM581 562l61 -62l-61 -62h-346l-61 62l61 62h346zM642 31l-30 -31h-408l-30 31l92 93h284zM686 456l13 13h18v-364l-31 -30l-93 92v197z" />
    <glyph glyph-name="P" unicode="P" 
d="M130 75l-31 30v364h18l13 -13l93 -92v-197zM130 544l-13 -13h-18v363l31 31l93 -92v-197zM581 562l61 -62l-61 -62h-346l-61 62l61 62h346zM174 969l30 31h408l30 -31l-92 -93h-284zM686 925l31 -30v-364h-18l-13 13l-93 92v197z" />
    <glyph glyph-name="Q" unicode="Q" 
d="M130 544l-13 -13h-18v363l31 31l93 -92v-197zM581 562l61 -62l-61 -62h-346l-61 62l61 62h346zM174 969l30 31h408l30 -31l-92 -93h-284zM686 925l31 -30v-364h-18l-13 13l-93 92v197zM686 456l13 13h18v-364l-31 -30l-93 92v197z" />
    <glyph glyph-name="R" unicode="R" 
d="M130 75l-31 30v364h18l13 -13l93 -92v-197zM581 562l61 -62l-61 -62h-346l-61 62l61 62h346z" />
    <glyph glyph-name="S" unicode="S" 
d="M130 544l-13 -13h-18v363l31 31l93 -92v-197zM581 562l61 -62l-61 -62h-346l-61 62l61 62h346zM642 31l-30 -31h-408l-30 31l92 93h284zM686 456l13 13h18v-364l-31 -30l-93 92v197z" />
    <glyph glyph-name="T" unicode="T" 
d="M130 75l-31 30v364h18l13 -13l93 -92v-197zM130 544l-13 -13h-18v363l31 31l93 -92v-197zM581 562l61 -62l-61 -62h-346l-61 62l61 62h346zM642 31l-30 -31h-408l-30 31l92 93h284z" />
    <glyph glyph-name="U" unicode="U" 
d="M130 75l-31 30v364h18l13 -13l93 -92v-197zM642 31l-30 -31h-408l-30 31l92 93h284zM686 456l13 13h18v-364l-31 -30l-93 92v197z" />
    <glyph glyph-name="V" unicode="V" 
d="M130 75l-31 30v364h18l13 -13l93 -92v-197zM130 544l-13 -13h-18v363l31 31l93 -92v-197zM642 31l-30 -31h-408l-30 31l92 93h284zM686 925l31 -30v-364h-18l-13 13l-93 92v197zM686 456l13 13h18v-364l-31 -30l-93 92v197z" />
    <glyph glyph-name="W" unicode="W" 
d="M130 75l-31 30v364h18l13 -13l93 -92v-197zM130 544l-13 -13h-18v363l31 31l93 -92v-197zM581 562l61 -62l-61 -62h-346l-61 62l61 62h346zM642 31l-30 -31h-408l-30 31l92 93h284zM686 925l31 -30v-364h-18l-13 13l-93 92v197zM686 456l13 13h18v-364l-31 -30l-93 92
v197z" />
    <glyph glyph-name="X" unicode="X" 
d="M130 75l-31 30v364h18l13 -13l93 -92v-197zM130 544l-13 -13h-18v363l31 31l93 -92v-197zM581 562l61 -62l-61 -62h-346l-61 62l61 62h346zM686 925l31 -30v-364h-18l-13 13l-93 92v197zM686 456l13 13h18v-364l-31 -30l-93 92v197z" />
    <glyph glyph-name="Y" unicode="Y" 
d="M130 544l-13 -13h-18v363l31 31l93 -92v-197zM581 562l61 -62l-61 -62h-346l-61 62l61 62h346zM642 31l-30 -31h-408l-30 31l92 93h284zM686 925l31 -30v-364h-18l-13 13l-93 92v197zM686 456l13 13h18v-364l-31 -30l-93 92v197z" />
    <glyph glyph-name="Z" unicode="Z" 
d="M130 75l-31 30v364h18l13 -13l93 -92v-197zM174 969l30 31h408l30 -31l-92 -93h-284zM642 31l-30 -31h-408l-30 31l92 93h284zM686 925l31 -30v-364h-18l-13 13l-93 92v197z" />
    <glyph glyph-name="a" unicode="a" 
d="M130 75l-31 30v364h18l13 -13l93 -92v-197zM130 544l-13 -13h-18v363l31 31l93 -92v-197zM581 562l61 -62l-61 -62h-346l-61 62l61 62h346zM174 969l30 31h408l30 -31l-92 -93h-284zM686 925l31 -30v-364h-18l-13 13l-93 92v197zM686 456l13 13h18v-364l-31 -30l-93 92
v197z" />
    <glyph glyph-name="b" unicode="b" 
d="M130 75l-31 30v364h18l13 -13l93 -92v-197zM130 544l-13 -13h-18v363l31 31l93 -92v-197zM581 562l61 -62l-61 -62h-346l-61 62l61 62h346zM642 31l-30 -31h-408l-30 31l92 93h284zM686 456l13 13h18v-364l-31 -30l-93 92v197z" />
    <glyph glyph-name="c" unicode="c" 
d="M130 75l-31 30v364h18l13 -13l93 -92v-197zM581 562l61 -62l-61 -62h-346l-61 62l61 62h346zM642 31l-30 -31h-408l-30 31l92 93h284z" />
    <glyph glyph-name="d" unicode="d" 
d="M130 75l-31 30v364h18l13 -13l93 -92v-197zM581 562l61 -62l-61 -62h-346l-61 62l61 62h346zM642 31l-30 -31h-408l-30 31l92 93h284zM686 925l31 -30v-364h-18l-13 13l-93 92v197zM686 456l13 13h18v-364l-31 -30l-93 92v197z" />
    <glyph glyph-name="e" unicode="e" 
d="M130 75l-31 30v364h18l13 -13l93 -92v-197zM130 544l-13 -13h-18v363l31 31l93 -92v-197zM581 562l61 -62l-61 -62h-346l-61 62l61 62h346zM174 969l30 31h408l30 -31l-92 -93h-284zM642 31l-30 -31h-408l-30 31l92 93h284z" />
    <glyph glyph-name="f" unicode="f" 
d="M130 75l-31 30v364h18l13 -13l93 -92v-197zM130 544l-13 -13h-18v363l31 31l93 -92v-197zM581 562l61 -62l-61 -62h-346l-61 62l61 62h346zM174 969l30 31h408l30 -31l-92 -93h-284z" />
    <glyph glyph-name="g" unicode="g" 
d="M130 75l-31 30v364h18l13 -13l93 -92v-197zM130 544l-13 -13h-18v363l31 31l93 -92v-197zM174 969l30 31h408l30 -31l-92 -93h-284zM642 31l-30 -31h-408l-30 31l92 93h284zM686 456l13 13h18v-364l-31 -30l-93 92v197z" />
    <glyph glyph-name="h" unicode="h" 
d="M130 75l-31 30v364h18l13 -13l93 -92v-197zM130 544l-13 -13h-18v363l31 31l93 -92v-197zM581 562l61 -62l-61 -62h-346l-61 62l61 62h346zM686 456l13 13h18v-364l-31 -30l-93 92v197z" />
    <glyph glyph-name="i" unicode="i" 
d="M686 456l13 13h18v-364l-31 -30l-93 92v197z" />
    <glyph glyph-name="j" unicode="j" 
d="M130 75l-31 30v364h18l13 -13l93 -92v-197zM642 31l-30 -31h-408l-30 31l92 93h284zM686 925l31 -30v-364h-18l-13 13l-93 92v197zM686 456l13 13h18v-364l-31 -30l-93 92v197z" />
    <glyph glyph-name="k" unicode="k" 
d="M130 75l-31 30v364h18l13 -13l93 -92v-197zM130 544l-13 -13h-18v363l31 31l93 -92v-197zM581 562l61 -62l-61 -62h-346l-61 62l61 62h346zM174 969l30 31h408l30 -31l-92 -93h-284zM686 456l13 13h18v-364l-31 -30l-93 92v197z" />
    <glyph glyph-name="l" unicode="l" 
d="M130 75l-31 30v364h18l13 -13l93 -92v-197zM130 544l-13 -13h-18v363l31 31l93 -92v-197zM642 31l-30 -31h-408l-30 31l92 93h284z" />
    <glyph glyph-name="m" unicode="m" 
d="M130 75l-31 30v364h18l13 -13l93 -92v-197zM130 544l-13 -13h-18v363l31 31l93 -92v-197zM174 969l30 31h408l30 -31l-92 -93h-284zM686 925l31 -30v-364h-18l-13 13l-93 92v197zM686 456l13 13h18v-364l-31 -30l-93 92v197z" />
    <glyph glyph-name="n" unicode="n" 
d="M130 75l-31 30v364h18l13 -13l93 -92v-197zM581 562l61 -62l-61 -62h-346l-61 62l61 62h346zM686 456l13 13h18v-364l-31 -30l-93 92v197z" />
    <glyph glyph-name="o" unicode="o" 
d="M130 75l-31 30v364h18l13 -13l93 -92v-197zM581 562l61 -62l-61 -62h-346l-61 62l61 62h346zM642 31l-30 -31h-408l-30 31l92 93h284zM686 456l13 13h18v-364l-31 -30l-93 92v197z" />
    <glyph glyph-name="p" unicode="p" 
d="M130 75l-31 30v364h18l13 -13l93 -92v-197zM130 544l-13 -13h-18v363l31 31l93 -92v-197zM581 562l61 -62l-61 -62h-346l-61 62l61 62h346zM174 969l30 31h408l30 -31l-92 -93h-284zM686 925l31 -30v-364h-18l-13 13l-93 92v197z" />
    <glyph glyph-name="q" unicode="q" 
d="M130 544l-13 -13h-18v363l31 31l93 -92v-197zM581 562l61 -62l-61 -62h-346l-61 62l61 62h346zM174 969l30 31h408l30 -31l-92 -93h-284zM686 925l31 -30v-364h-18l-13 13l-93 92v197zM686 456l13 13h18v-364l-31 -30l-93 92v197z" />
    <glyph glyph-name="r" unicode="r" 
d="M130 75l-31 30v364h18l13 -13l93 -92v-197zM581 562l61 -62l-61 -62h-346l-61 62l61 62h346z" />
    <glyph glyph-name="s" unicode="s" 
d="M130 544l-13 -13h-18v363l31 31l93 -92v-197zM581 562l61 -62l-61 -62h-346l-61 62l61 62h346zM642 31l-30 -31h-408l-30 31l92 93h284zM686 456l13 13h18v-364l-31 -30l-93 92v197z" />
    <glyph glyph-name="t" unicode="t" 
d="M130 75l-31 30v364h18l13 -13l93 -92v-197zM130 544l-13 -13h-18v363l31 31l93 -92v-197zM581 562l61 -62l-61 -62h-346l-61 62l61 62h346zM642 31l-30 -31h-408l-30 31l92 93h284z" />
    <glyph glyph-name="u" unicode="u" 
d="M130 75l-31 30v364h18l13 -13l93 -92v-197zM642 31l-30 -31h-408l-30 31l92 93h284zM686 456l13 13h18v-364l-31 -30l-93 92v197z" />
    <glyph glyph-name="v" unicode="v" 
d="M130 75l-31 30v364h18l13 -13l93 -92v-197zM130 544l-13 -13h-18v363l31 31l93 -92v-197zM642 31l-30 -31h-408l-30 31l92 93h284zM686 925l31 -30v-364h-18l-13 13l-93 92v197zM686 456l13 13h18v-364l-31 -30l-93 92v197z" />
    <glyph glyph-name="w" unicode="w" 
d="M130 75l-31 30v364h18l13 -13l93 -92v-197zM130 544l-13 -13h-18v363l31 31l93 -92v-197zM581 562l61 -62l-61 -62h-346l-61 62l61 62h346zM642 31l-30 -31h-408l-30 31l92 93h284zM686 925l31 -30v-364h-18l-13 13l-93 92v197zM686 456l13 13h18v-364l-31 -30l-93 92
v197z" />
    <glyph glyph-name="x" unicode="x" 
d="M130 75l-31 30v364h18l13 -13l93 -92v-197zM130 544l-13 -13h-18v363l31 31l93 -92v-197zM581 562l61 -62l-61 -62h-346l-61 62l61 62h346zM686 925l31 -30v-364h-18l-13 13l-93 92v197zM686 456l13 13h18v-364l-31 -30l-93 92v197z" />
    <glyph glyph-name="y" unicode="y" 
d="M130 544l-13 -13h-18v363l31 31l93 -92v-197zM581 562l61 -62l-61 -62h-346l-61 62l61 62h346zM642 31l-30 -31h-408l-30 31l92 93h284zM686 925l31 -30v-364h-18l-13 13l-93 92v197zM686 456l13 13h18v-364l-31 -30l-93 92v197z" />
    <glyph glyph-name="z" unicode="z" 
d="M130 75l-31 30v364h18l13 -13l93 -92v-197zM174 969l30 31h408l30 -31l-92 -93h-284zM642 31l-30 -31h-408l-30 31l92 93h284zM686 925l31 -30v-364h-18l-13 13l-93 92v197z" />
    <glyph glyph-name=".null" horiz-adv-x="0" 
 />
    <glyph glyph-name="nonmarkingreturn" horiz-adv-x="333" 
 />
  </font>
</defs>
</svg>
